<svg xmlns="http://www.w3.org/2000/svg" viewBox="0 0 255.43 255.43"><defs><style>.cls-1{fill:#bcbec0;}.cls-2{fill:none;stroke:#bcbec0;stroke-linecap:round;stroke-linejoin:round;stroke-width:2.5px;}</style></defs><title>joplin__bottom</title><g id="Layer_2" data-name="Layer 2"><g id="refined"><path class="cls-1" d="M126.71,199.73c3.26,0,4.61,1.35,4.61,4.61S130,209,126.71,209s-4.61-1.35-4.61-4.61S123.45,199.73,126.71,199.73Z"/><circle class="cls-2" cx="126.71" cy="126.49" r="93.01"/><path class="cls-2" d="M127.71,1.25a126.46,126.46,0,0,0,0,252.93c67.18,0,126.46-59.29,126.46-126.46A126.46,126.46,0,0,0,127.71,1.25Z"/><path class="cls-1" d="M111.68,241.36c.14-4.07,2.12-5.66,5.63-7,3.17-1.21,6.24-.78,9.41-.78s6.24-.42,9.4.78c3.51,1.34,5.49,2.93,5.63,7,0,0,.51,6.89-8.36,6.89H119.78S111.19,248.08,111.68,241.36Z"/><path class="cls-1" d="M217.92,199c-4.87-4.73-11.24,1.78-13.34,3.92-.56.57-1.12,1.13-1.68,1.68-2.14,2.09-8.64,8.43-3.95,13.31a3.76,3.76,0,0,0,2.83,1.21,5.73,5.73,0,0,0,2.34-.55c2.43-1.09,5.58-2.72,6.1-3h0l.07,0a1.25,1.25,0,0,0-1-2.28c-1.6.27-2.75,0-3.43-.92-.9-1.16-.94-3.31-.1-5.11a15.61,15.61,0,0,1,6.62-6.14,5.91,5.91,0,0,1,3.57-.12c.34.06.67.12,1,.15a1.25,1.25,0,0,0,1-2.14Z"/><path class="cls-1" d="M134.1,134.7a10.54,10.54,0,0,0,3.24-8,12.39,12.39,0,0,0-.2-2.24h-10.2v4.15h5.84A5,5,0,0,1,130.6,132h0a6.53,6.53,0,1,1-3.66-12,5.9,5.9,0,0,1,4.15,1.62l3.11-3.11a10.43,10.43,0,0,0-7.25-2.82,10.84,10.84,0,0,0,0,21.67,10.36,10.36,0,0,0,7.17-2.62h0Z"/><path class="cls-2" d="M204.8,209.65c-.33,2.36.68,4.8,3.32,4.94s5-1.59,6.81-3.28a12.49,12.49,0,0,0,3.85-6.49c.42-2.42-.78-4.51-3.35-4.71"/></g></g></svg>